<?xml version="1.0" ?><svg height="100" id="svg3200" version="1.1" width="100" xmlns="http://www.w3.org/2000/svg" xmlns:cc="http://creativecommons.org/ns#" xmlns:dc="http://purl.org/dc/elements/1.1/" xmlns:inkscape="http://www.inkscape.org/namespaces/inkscape" xmlns:rdf="http://www.w3.org/1999/02/22-rdf-syntax-ns#" xmlns:sodipodi="http://sodipodi.sourceforge.net/DTD/sodipodi-0.dtd" xmlns:svg="http://www.w3.org/2000/svg" xmlns:xlink="http://www.w3.org/1999/xlink"><defs id="defs3"><linearGradient gradientUnits="userSpaceOnUse" id="SVGID_3_" x1="117.1919" x2="117.1919" y1="242.2925" y2="355.59619"><stop id="stop17" offset="0" style="stop-color:#257CB0"/><stop id="stop19" offset="0.2863" style="stop-color:#4A93B5"/><stop id="stop21" offset="0.767" style="stop-color:#78BCBB"/><stop id="stop23" offset="1" style="stop-color:#89CFBD"/></linearGradient><clipPath id="SVGID_2_"><use height="792" id="use14" overflow="visible" style="overflow:visible" width="612" x="0" xlink:href="#SVGID_1_" y="0"/></clipPath><linearGradient gradientUnits="userSpaceOnUse" id="SVGID_4_" x1="88.625" x2="161.10451" y1="270.41309" y2="270.41309"><stop id="stop28" offset="0" style="stop-color:#52C1AD"/><stop id="stop30" offset="1" style="stop-color:#DEE89A"/></linearGradient><clipPath id="clipPath3399"><use height="792" id="use3401" overflow="visible" style="overflow:visible" width="612" x="0" xlink:href="#SVGID_1_" y="0"/></clipPath><linearGradient gradientUnits="userSpaceOnUse" id="SVGID_5_" x1="124.8643" x2="124.8643" y1="298.94531" y2="356.00729"><stop id="stop35" offset="0" style="stop-color:#EC413D"/><stop id="stop37" offset="0.1668" style="stop-color:#DA4452"/><stop id="stop39" offset="0.5748" style="stop-color:#B0487A"/><stop id="stop41" offset="0.8619" style="stop-color:#954A92"/><stop id="stop43" offset="1" style="stop-color:#8A4A9D"/></linearGradient><clipPath id="clipPath3409"><use height="792" id="use3411" overflow="visible" style="overflow:visible" width="612" x="0" xlink:href="#SVGID_1_" y="0"/></clipPath><linearGradient gradientUnits="userSpaceOnUse" id="SVGID_6_" x1="166.60989" x2="166.60989" y1="283.72849" y2="314.16019"><stop id="stop48" offset="0" style="stop-color:#F58879"/><stop id="stop50" offset="0.1194" style="stop-color:#F69079"/><stop id="stop52" offset="0.7128" style="stop-color:#FCB877"/><stop id="stop54" offset="1" style="stop-color:#FEC874"/></linearGradient><clipPath id="clipPath3418"><use height="792" id="use3420" overflow="visible" style="overflow:visible" width="612" x="0" xlink:href="#SVGID_1_" y="0"/></clipPath></defs><g id="layer1" transform="translate(0,-952.36218)"><g id="g3320" transform="matrix(0.16498567,0,0,0.16498567,-0.48569751,953.82719)"><path d="m 561.74,355.221 c 0,12.486 -10.121,22.611 -22.605,22.611 H 72.871 c -12.486,0 -22.61,-10.125 -22.61,-22.611 V 233.132 c 0,-12.486 10.125,-22.61 22.61,-22.61 h 466.264 c 12.484,0 22.605,10.125 22.605,22.61 v 122.089 z" id="path5" style="fill:#a7a9ac"/><g id="PLAY"><defs id="defs10"><path d="m 161.104,283.729 -23.063,-13.315 c 0,0 -42.016,-24.261 -44.486,-25.686 -2.47,-1.426 -4.931,-0.563 -4.931,2.417 0,4.965 0,51.8 0,51.8 0,0 0,50.615 0,52.85 0,2.234 1.759,3.198 3.905,1.959 2.145,-1.24 45.512,-26.279 45.512,-26.279 l 23.062,-13.314 c 0,0 19.568,-11.297 22.169,-12.798 2.601,-1.502 2.351,-3.563 0.156,-4.746 -2.195,-1.183 -22.324,-12.888 -22.324,-12.888 z" id="SVGID_1_"/></defs><clipPath id="clipPath3427"><use height="792" id="use3429" overflow="visible" style="overflow:visible" width="612" x="0" xlink:href="#SVGID_1_" y="0"/></clipPath><linearGradient gradientUnits="userSpaceOnUse" id="linearGradient3431" x1="117.1919" x2="117.1919" y1="242.2925" y2="355.59619"><stop id="stop3433" offset="0" style="stop-color:#257CB0"/><stop id="stop3435" offset="0.2863" style="stop-color:#4A93B5"/><stop id="stop3437" offset="0.767" style="stop-color:#78BCBB"/><stop id="stop3439" offset="1" style="stop-color:#89CFBD"/></linearGradient><polygon clip-path="url(#SVGID_2_)" id="polygon25" points="145.759,298.945 88.625,242.292 88.625,298.944 88.625,355.596 " style="fill:url(#SVGID_3_)"/><linearGradient gradientUnits="userSpaceOnUse" id="linearGradient3442" x1="88.625" x2="161.10451" y1="270.41309" y2="270.41309"><stop id="stop3444" offset="0" style="stop-color:#52C1AD"/><stop id="stop3446" offset="1" style="stop-color:#DEE89A"/></linearGradient><polygon clip-path="url(#SVGID_2_)" id="polygon32" points="145.759,298.945 161.104,283.729 138.042,270.413 88.625,241.88 88.625,242.292 " style="fill:url(#SVGID_4_)"/><linearGradient gradientUnits="userSpaceOnUse" id="linearGradient3449" x1="124.8643" x2="124.8643" y1="298.94531" y2="356.00729"><stop id="stop3451" offset="0" style="stop-color:#EC413D"/><stop id="stop3453" offset="0.1668" style="stop-color:#DA4452"/><stop id="stop3455" offset="0.5748" style="stop-color:#B0487A"/><stop id="stop3457" offset="0.8619" style="stop-color:#954A92"/><stop id="stop3459" offset="1" style="stop-color:#8A4A9D"/></linearGradient><polygon clip-path="url(#SVGID_2_)" id="polygon45" points="145.759,298.945 88.625,355.596 88.625,356.007 138.042,327.474 161.104,314.16 " style="fill:url(#SVGID_5_)"/><linearGradient gradientUnits="userSpaceOnUse" id="linearGradient3462" x1="166.60989" x2="166.60989" y1="283.72849" y2="314.16019"><stop id="stop3464" offset="0" style="stop-color:#F58879"/><stop id="stop3466" offset="0.1194" style="stop-color:#F69079"/><stop id="stop3468" offset="0.7128" style="stop-color:#FCB877"/><stop id="stop3470" offset="1" style="stop-color:#FEC874"/></linearGradient><polygon clip-path="url(#SVGID_2_)" id="polygon56" points="187.46,298.944 161.104,283.729 145.759,298.945 161.104,314.16 " style="fill:url(#SVGID_6_)"/></g><g id="g58"><path d="m 448.318,321.093 c -2.146,0 -4.104,-0.396 -5.877,-1.187 -1.773,-0.792 -3.263,-2.01 -4.466,-3.652 h -0.36 c 0.24,1.924 0.36,3.749 0.36,5.472 v 13.559 h -4.988 v -47.743 h 4.058 l 0.69,4.51 h 0.24 c 1.284,-1.804 2.778,-3.106 4.481,-3.909 1.703,-0.801 3.658,-1.203 5.861,-1.203 4.37,0 7.743,1.494 10.117,4.48 2.375,2.987 3.563,7.176 3.563,12.567 0,5.412 -1.208,9.615 -3.621,12.614 -2.415,2.994 -5.767,4.492 -10.058,4.492 z m -0.721,-29.914 c -3.367,0 -5.802,0.932 -7.305,2.796 -1.503,1.864 -2.275,4.831 -2.316,8.9 v 1.111 c 0,4.63 0.772,7.943 2.316,9.938 1.544,1.994 4.02,2.991 7.425,2.991 2.848,0 5.078,-1.152 6.692,-3.457 1.612,-2.304 2.419,-5.481 2.419,-9.532 0,-4.108 -0.807,-7.261 -2.419,-9.455 -1.614,-2.196 -3.886,-3.292 -6.812,-3.292 z" id="path60" style="fill:#f9f9f9"/><path d="m 473.554,320.491 h -4.99 v -46.78 h 4.99 v 46.78 z" id="path62" style="fill:#f9f9f9"/><path d="m 502.246,320.491 -0.993,-4.69 h -0.24 c -1.644,2.066 -3.282,3.464 -4.916,4.194 -1.633,0.733 -3.673,1.098 -6.117,1.098 -3.267,0 -5.827,-0.842 -7.682,-2.525 -1.855,-1.683 -2.781,-4.077 -2.781,-7.185 0,-6.653 5.322,-10.141 15.964,-10.463 l 5.594,-0.181 v -2.044 c 0,-2.586 -0.557,-4.496 -1.67,-5.727 -1.111,-1.234 -2.893,-1.85 -5.336,-1.85 -2.747,0 -5.854,0.842 -9.32,2.525 l -1.534,-3.818 c 1.625,-0.881 3.402,-1.573 5.338,-2.074 1.934,-0.5 3.872,-0.752 5.817,-0.752 3.928,0 6.839,0.872 8.734,2.616 1.893,1.744 2.84,4.54 2.84,8.388 v 22.488 h -3.698 z m -11.273,-3.516 c 3.105,0 5.545,-0.852 7.32,-2.554 1.772,-1.703 2.661,-4.089 2.661,-7.158 v -2.976 l -4.993,0.209 c -3.968,0.142 -6.827,0.756 -8.583,1.851 -1.753,1.092 -2.63,2.791 -2.63,5.096 0,1.804 0.545,3.177 1.639,4.118 1.092,0.942 2.619,1.414 4.586,1.414 z" id="path64" style="fill:#f9f9f9"/><path d="m 508.841,287.541 h 5.35 l 7.216,18.791 c 1.583,4.291 2.566,7.386 2.948,9.292 h 0.24 c 0.261,-1.024 0.808,-2.772 1.638,-5.249 0.832,-2.475 3.554,-10.085 8.162,-22.833 h 5.354 l -14.162,37.521 c -1.402,3.708 -3.041,6.339 -4.917,7.895 -1.873,1.552 -4.174,2.328 -6.897,2.328 -1.524,0 -3.027,-0.171 -4.512,-0.51 v -3.998 c 1.102,0.24 2.336,0.361 3.699,0.361 3.428,0 5.871,-1.924 7.336,-5.773 l 1.833,-4.69 -13.288,-33.135 z" id="path66" style="fill:#f9f9f9"/></g><g id="g68"><path d="m 355.869,290.603 c 1.584,1.311 4.892,4.066 4.892,9.306 0,5.097 -2.895,7.514 -5.79,9.785 -0.896,0.894 -1.93,1.864 -1.93,3.381 0,1.513 1.033,2.341 1.794,2.962 l 2.482,1.926 c 3.032,2.551 5.786,4.896 5.786,9.654 0,6.477 -6.272,13.023 -18.124,13.023 -9.995,0 -14.817,-4.754 -14.817,-9.857 0,-2.481 1.235,-5.994 5.307,-8.409 4.27,-2.619 10.063,-2.96 13.163,-3.171 -0.968,-1.24 -2.068,-2.549 -2.068,-4.683 0,-1.169 0.346,-1.86 0.689,-2.69 -0.761,0.07 -1.518,0.138 -2.208,0.138 -7.303,0 -11.438,-5.445 -11.438,-10.817 0,-3.171 1.449,-6.688 4.409,-9.236 3.93,-3.239 8.616,-3.792 12.341,-3.792 h 14.194 l -4.411,2.481 h -4.271 z m -4.894,30.602 c -0.551,-0.072 -0.897,-0.072 -1.583,-0.072 -0.62,0 -4.347,0.14 -7.238,1.108 -1.516,0.547 -5.928,2.201 -5.928,7.097 0,4.89 4.758,8.411 12.133,8.411 6.612,0 10.131,-3.177 10.131,-7.447 -0.001,-3.52 -2.276,-5.374 -7.515,-9.097 z m 2,-13.097 c 1.583,-1.587 1.719,-3.79 1.719,-5.032 0,-4.961 -2.962,-12.681 -8.681,-12.681 -1.794,0 -3.722,0.895 -4.825,2.275 -1.17,1.448 -1.518,3.306 -1.518,5.101 0,4.616 2.688,12.267 8.618,12.267 1.723,10e-4 3.579,-0.826 4.687,-1.93 z" id="path70" style="fill:#f9f9f9"/><path d="m 312.48,320.102 c -10.939,0 -16.788,-8.533 -16.788,-16.241 0,-9.015 7.361,-16.718 17.824,-16.718 10.11,0 16.441,7.911 16.441,16.239 0.001,8.115 -6.258,16.72 -17.477,16.72 z m 8.6,-5.573 c 1.654,-2.204 2.067,-4.954 2.067,-7.641 0,-6.056 -2.89,-17.614 -11.423,-17.614 -2.27,0 -4.54,0.896 -6.191,2.343 -2.684,2.405 -3.168,5.434 -3.168,8.396 0,6.807 3.372,18.021 11.7,18.021 2.683,0 5.436,-1.305 7.015,-3.505 z" id="path72" style="fill:#f9f9f9"/><path d="m 275.185,320.102 c -10.941,0 -16.79,-8.533 -16.79,-16.241 0,-9.015 7.364,-16.718 17.824,-16.718 10.114,0 16.444,7.911 16.444,16.239 0,8.115 -6.261,16.72 -17.478,16.72 z m 8.602,-5.573 c 1.652,-2.204 2.066,-4.954 2.066,-7.641 0,-6.056 -2.892,-17.614 -11.425,-17.614 -2.269,0 -4.541,0.896 -6.191,2.343 -2.684,2.405 -3.165,5.434 -3.165,8.396 0,6.807 3.37,18.021 11.699,18.021 2.683,0 5.434,-1.305 7.016,-3.505 z" id="path74" style="fill:#f9f9f9"/><path d="m 253.139,319.023 -9.894,2.283 c -4.014,0.625 -7.61,1.173 -11.413,1.173 -19.096,0 -26.357,-14.043 -26.357,-25.043 0,-13.419 10.306,-25.869 27.949,-25.869 3.737,0 7.331,0.552 10.582,1.452 5.188,1.453 7.609,3.25 9.132,4.289 l -5.744,5.466 -2.42,0.551 1.729,-2.769 c -2.351,-2.281 -6.644,-6.499 -14.804,-6.499 -10.931,0 -19.165,8.304 -19.165,20.409 0,13.002 9.41,25.248 24.488,25.248 4.432,0 6.71,-0.898 8.787,-1.73 v -11.136 l -10.444,0.553 5.532,-2.978 h 14.667 l -1.797,1.729 c -0.488,0.417 -0.555,0.557 -0.693,1.105 -0.072,0.625 -0.137,2.632 -0.137,3.323 v 8.443 z" id="path76" style="fill:#f9f9f9"/><path d="m 377.734,317.031 c -2.284,-0.208 -2.762,-0.621 -2.762,-3.323 v -0.761 -38.393 c 0.014,-0.149 0.023,-0.302 0.037,-0.446 0.279,-2.42 0.97,-2.835 3.117,-4.082 h -9.896 l -5.19,2.491 h 5.289 v 0.032 l -0.004,-0.025 v 40.424 2.285 c 0,1.381 -0.273,1.59 -1.866,3.664 h 12.246 l 2.56,-1.519 c -1.175,-0.141 -2.353,-0.209 -3.531,-0.347 z" id="path78" style="fill:#f9f9f9"/><path d="m 405.884,317.667 c -0.753,0.414 -1.509,0.896 -2.262,1.238 -2.271,1.03 -4.606,1.305 -6.671,1.305 -2.193,0 -5.631,-0.142 -9.138,-2.681 -4.874,-3.437 -7.004,-9.345 -7.004,-14.497 0,-10.647 8.656,-15.868 15.732,-15.868 2.474,0 5.019,0.617 7.08,1.924 3.432,2.263 4.325,5.217 4.803,6.797 l -16.141,6.529 -5.291,0.413 c 1.715,8.725 7.623,13.805 14.152,13.805 3.503,0 6.046,-1.235 8.381,-2.401 l -3.641,3.436 z m -6.455,-20.475 c 1.303,-0.48 1.99,-0.893 1.99,-1.854 0,-2.747 -3.09,-5.909 -6.803,-5.909 -2.751,0 -7.9,2.131 -7.9,9.55 0,1.168 0.138,2.404 0.209,3.644 l 12.504,-5.431 z" id="path80" style="fill:#f9f9f9"/><g id="g82"><path d="m 412.516,287.634 v 4.533 h -0.551 v -4.533 h -1.5 v -0.469 h 3.55 v 0.469 h -1.499 z" id="path84" style="fill:#f9f9f9"/><path d="m 418.695,292.167 v -4.576 h -0.025 l -1.396,4.576 h -0.431 l -1.408,-4.576 h -0.018 v 4.576 h -0.5 v -5.002 h 0.857 l 1.274,4.043 h 0.018 l 1.255,-4.043 h 0.869 v 5.002 h -0.495 z" id="path86" style="fill:#f9f9f9"/></g></g><g id="g88"><path d="m 219.214,258.097 h -3.438 c 0,-0.473 -0.326,-1.812 -0.978,-4.018 h -4.963 c -0.673,2.17 -1.01,3.509 -1.01,4.018 h -3.233 c 0,-0.279 0.836,-2.571 2.508,-6.875 1.672,-4.304 2.508,-6.674 2.508,-7.111 h 4.061 c 0,0.408 0.757,2.745 2.272,7.009 1.515,4.264 2.273,6.59 2.273,6.977 z m -4.963,-6.07 c -1.225,-3.695 -1.837,-5.693 -1.837,-5.994 h -0.172 c 0,0.279 -0.634,2.277 -1.901,5.994 h 3.91 z" id="path90" style="fill:#f9f9fa"/><path d="m 233.066,258.097 h -2.653 c 0,-0.293 -0.985,-1.844 -2.954,-4.651 -2.063,-2.958 -3.237,-4.98 -3.523,-6.069 h -0.172 c 0.179,1.568 0.269,2.986 0.269,4.254 0,1.769 0.05,3.925 0.15,6.467 h -2.643 c 0.107,-2.22 0.161,-4.658 0.161,-7.315 0,-2.614 -0.054,-4.837 -0.161,-6.671 h 3.19 c 0,0.38 0.884,1.895 2.653,4.544 1.883,2.814 2.965,4.723 3.244,5.726 h 0.161 c -0.172,-1.597 -0.258,-3.029 -0.258,-4.297 0,-1.94 -0.05,-3.932 -0.15,-5.973 h 2.686 c -0.101,1.776 -0.15,4 -0.15,6.671 0,2.691 0.049,5.13 0.15,7.314 z" id="path92" style="fill:#f9f9fa"/><path d="m 248.636,250.62 c 0,2.034 -0.652,3.81 -1.955,5.328 -1.304,1.519 -3.13,2.277 -5.479,2.277 -1.06,0 -2.521,-0.043 -4.383,-0.129 0.093,-2.163 0.14,-4.601 0.14,-7.315 0,-2.606 -0.047,-4.83 -0.14,-6.671 h 1.88 c 0.308,0 0.766,-0.011 1.375,-0.032 0.608,-0.021 1.006,-0.032 1.192,-0.032 2.585,0 4.459,0.645 5.624,1.934 1.164,1.289 1.746,2.835 1.746,4.64 z m -2.933,0.462 c 0,-1.375 -0.401,-2.533 -1.203,-3.475 -0.802,-0.941 -2.027,-1.413 -3.674,-1.413 -0.308,0 -0.73,0.032 -1.268,0.097 0.071,1.433 0.107,2.929 0.107,4.49 0,1.712 0.036,3.409 0.107,5.092 0.465,0.093 0.931,0.14 1.396,0.14 1.54,0 2.68,-0.478 3.421,-1.434 0.741,-0.956 1.114,-2.122 1.114,-3.497 z" id="path94" style="fill:#f9f9fa"/><path d="m 262.992,258.097 h -3.18 c -0.831,-2.535 -1.468,-4.1 -1.912,-4.694 -0.444,-0.594 -1.16,-0.892 -2.148,-0.892 -0.416,0 -0.813,0.004 -1.192,0.011 0,1.841 0.032,3.699 0.097,5.575 h -2.986 c 0.093,-2.163 0.14,-4.601 0.14,-7.315 0,-2.606 -0.047,-4.83 -0.14,-6.671 h 1.858 c 0.215,0 0.664,-0.011 1.348,-0.032 0.684,-0.021 1.316,-0.032 1.896,-0.032 3.287,0 4.931,1.125 4.931,3.373 0,1.783 -0.938,3.026 -2.814,3.728 v 0.161 c 0.723,0.201 1.357,0.765 1.901,1.692 0.543,0.926 1.277,2.625 2.201,5.096 z m -4.028,-9.883 c 0,-1.425 -0.917,-2.138 -2.75,-2.138 -0.673,0 -1.268,0.05 -1.783,0.15 0.079,1.11 0.118,2.557 0.118,4.34 0.394,0.015 0.727,0.021 0.999,0.021 2.277,0.001 3.416,-0.79 3.416,-2.373 z" id="path96" style="fill:#f9f9fa"/><path d="m 278.391,250.846 c 0,2.199 -0.673,4.021 -2.02,5.468 -1.347,1.447 -3.012,2.17 -4.995,2.17 -1.891,0 -3.474,-0.664 -4.748,-1.993 -1.275,-1.328 -1.912,-3.017 -1.912,-5.065 0,-2.198 0.673,-4.021 2.02,-5.468 1.346,-1.446 3.011,-2.17 4.995,-2.17 1.891,0 3.473,0.663 4.748,1.987 1.274,1.326 1.912,3.016 1.912,5.071 z m -2.965,0.311 c 0,-1.497 -0.383,-2.71 -1.149,-3.642 -0.767,-0.931 -1.712,-1.396 -2.836,-1.396 -1.046,0 -1.934,0.469 -2.664,1.407 -0.73,0.938 -1.096,2.124 -1.096,3.556 0,1.49 0.385,2.702 1.155,3.636 0.77,0.935 1.713,1.402 2.831,1.402 1.045,0 1.934,-0.471 2.664,-1.413 0.73,-0.941 1.095,-2.124 1.095,-3.55 z" id="path98" style="fill:#f9f9fa"/><path d="m 284.464,258.097 h -3.04 c 0.093,-2.22 0.14,-4.658 0.14,-7.315 0,-2.614 -0.047,-4.837 -0.14,-6.671 h 3.04 c -0.093,1.805 -0.14,4.028 -0.14,6.671 10e-4,2.699 0.047,5.138 0.14,7.315 z" id="path100" style="fill:#f9f9fa"/><path d="m 300.035,250.62 c 0,2.034 -0.652,3.81 -1.955,5.328 -1.304,1.519 -3.13,2.277 -5.479,2.277 -1.06,0 -2.521,-0.043 -4.383,-0.129 0.093,-2.163 0.14,-4.601 0.14,-7.315 0,-2.606 -0.047,-4.83 -0.14,-6.671 h 1.88 c 0.308,0 0.766,-0.011 1.375,-0.032 0.608,-0.021 1.006,-0.032 1.192,-0.032 2.585,0 4.459,0.645 5.624,1.934 1.164,1.289 1.746,2.835 1.746,4.64 z m -2.933,0.462 c 0,-1.375 -0.401,-2.533 -1.203,-3.475 -0.802,-0.941 -2.027,-1.413 -3.674,-1.413 -0.308,0 -0.73,0.032 -1.268,0.097 0.071,1.433 0.107,2.929 0.107,4.49 0,1.712 0.036,3.409 0.107,5.092 0.465,0.093 0.931,0.14 1.396,0.14 1.54,0 2.68,-0.478 3.421,-1.434 0.741,-0.956 1.114,-2.122 1.114,-3.497 z" id="path102" style="fill:#f9f9fa"/><path d="m 320.69,258.097 h -3.438 c 0,-0.473 -0.326,-1.812 -0.979,-4.018 h -4.963 c -0.673,2.17 -1.01,3.509 -1.01,4.018 h -3.232 c 0,-0.279 0.836,-2.571 2.508,-6.875 1.672,-4.304 2.508,-6.674 2.508,-7.111 h 4.061 c 0,0.408 0.758,2.745 2.272,7.009 1.514,4.264 2.273,6.59 2.273,6.977 z m -4.962,-6.07 c -1.225,-3.695 -1.838,-5.693 -1.838,-5.994 h -0.172 c 0,0.279 -0.633,2.277 -1.9,5.994 h 3.91 z" id="path104" style="fill:#f9f9fa"/><path d="m 333.221,247.773 c 0,1.712 -0.636,2.976 -1.907,3.792 -1.271,0.816 -2.83,1.225 -4.678,1.225 -0.337,0 -0.576,-0.007 -0.72,-0.021 0,1.347 0.039,3.123 0.118,5.328 h -3.019 c 0.093,-2.069 0.14,-4.508 0.14,-7.315 0,-2.578 -0.047,-4.802 -0.14,-6.671 h 1.869 c 0.265,0 0.773,-0.011 1.525,-0.032 0.752,-0.021 1.403,-0.032 1.955,-0.032 1.36,0 2.51,0.308 3.448,0.924 0.94,0.615 1.409,1.55 1.409,2.802 z m -2.772,0.591 c 0,-1.532 -1.017,-2.299 -3.051,-2.299 -0.509,0 -1.046,0.054 -1.611,0.161 0.079,1.354 0.118,2.886 0.118,4.598 0.179,0.015 0.387,0.021 0.623,0.021 2.615,0.001 3.921,-0.826 3.921,-2.481 z" id="path106" style="fill:#f9f9fa"/><path d="m 346.104,247.773 c 0,1.712 -0.636,2.976 -1.906,3.792 -1.271,0.816 -2.831,1.225 -4.679,1.225 -0.337,0 -0.576,-0.007 -0.72,-0.021 0,1.347 0.039,3.123 0.118,5.328 h -3.019 c 0.093,-2.069 0.14,-4.508 0.14,-7.315 0,-2.578 -0.047,-4.802 -0.14,-6.671 h 1.869 c 0.265,0 0.773,-0.011 1.525,-0.032 0.752,-0.021 1.403,-0.032 1.955,-0.032 1.36,0 2.51,0.308 3.448,0.924 0.941,0.615 1.409,1.55 1.409,2.802 z m -2.771,0.591 c 0,-1.532 -1.017,-2.299 -3.051,-2.299 -0.509,0 -1.046,0.054 -1.611,0.161 0.079,1.354 0.118,2.886 0.118,4.598 0.179,0.015 0.387,0.021 0.623,0.021 2.614,0.001 3.921,-0.826 3.921,-2.481 z" id="path108" style="fill:#f9f9fa"/><path d="m 367.169,250.846 c 0,2.199 -0.673,4.021 -2.02,5.468 -1.347,1.447 -3.012,2.17 -4.995,2.17 -1.891,0 -3.474,-0.664 -4.748,-1.993 -1.274,-1.328 -1.912,-3.017 -1.912,-5.065 0,-2.198 0.673,-4.021 2.02,-5.468 1.347,-1.446 3.012,-2.17 4.995,-2.17 1.891,0 3.474,0.663 4.748,1.987 1.274,1.326 1.912,3.016 1.912,5.071 z m -2.965,0.311 c 0,-1.497 -0.383,-2.71 -1.149,-3.642 -0.767,-0.931 -1.712,-1.396 -2.836,-1.396 -1.046,0 -1.934,0.469 -2.664,1.407 -0.73,0.938 -1.096,2.124 -1.096,3.556 0,1.49 0.385,2.702 1.155,3.636 0.77,0.935 1.713,1.402 2.83,1.402 1.046,0 1.934,-0.471 2.664,-1.413 0.731,-0.941 1.096,-2.124 1.096,-3.55 z" id="path110" style="fill:#f9f9fa"/><path d="m 381.729,258.097 h -2.653 c 0,-0.293 -0.984,-1.844 -2.954,-4.651 -2.063,-2.958 -3.237,-4.98 -3.523,-6.069 h -0.172 c 0.179,1.568 0.269,2.986 0.269,4.254 0,1.769 0.05,3.925 0.15,6.467 h -2.643 c 0.107,-2.22 0.161,-4.658 0.161,-7.315 0,-2.614 -0.054,-4.837 -0.161,-6.671 h 3.19 c 0,0.38 0.885,1.895 2.653,4.544 1.884,2.814 2.965,4.723 3.244,5.726 h 0.161 c -0.172,-1.597 -0.258,-3.029 -0.258,-4.297 0,-1.94 -0.05,-3.932 -0.15,-5.973 h 2.686 c -0.101,1.776 -0.15,4 -0.15,6.671 0,2.691 0.05,5.13 0.15,7.314 z" id="path112" style="fill:#f9f9fa"/></g></g></g></svg>